<svg width="205" height="42" viewBox="0 0 205 42" fill="none" xmlns="http://www.w3.org/2000/svg">
<g clip-path="url(#clip0)">
<path d="M72.361 24.1905L71.1391 27.5114H71.0373C70.8337 26.7626 70.4603 25.623 69.8494 24.2556L63.2989 8.46488H56.8842V33.6323H61.1267V18.1021C61.1267 17.1253 61.1267 16.0184 61.0928 14.6509C61.0588 13.9672 60.9909 13.4463 60.957 13.0556H61.0588C61.2625 14.0323 61.5 14.7486 61.6697 15.2044L69.5439 33.5672H72.5307L80.337 15.0416C80.5067 14.6184 80.6764 13.7719 80.8461 13.0556H80.9479C80.8461 14.9114 80.7782 16.5719 80.7443 17.5812V33.5346H85.2583V8.39976H79.0812L72.361 24.1905ZM89.5348 15.4974H93.9471V33.5346H89.5348V15.4974ZM91.7749 7.87883C91.0282 7.87883 90.4173 8.13929 89.9082 8.59511C89.3991 9.05092 89.1275 9.63697 89.1275 10.3532C89.1275 11.037 89.3991 11.623 89.9082 12.0788C90.4173 12.5346 91.0282 12.7626 91.7749 12.7626C92.5216 12.7626 93.1664 12.5021 93.6416 12.0788C94.1507 11.623 94.4222 11.037 94.4222 10.3532C94.4222 9.66953 94.1507 9.08348 93.6416 8.59511C93.2004 8.13929 92.5555 7.87883 91.7749 7.87883ZM109.594 15.3346C108.779 15.1719 107.931 15.0742 107.116 15.0742C105.113 15.0742 103.281 15.4974 101.753 16.3439C100.226 17.1905 99.0042 18.3626 98.2236 19.8277C97.409 21.3253 97.0017 23.0509 97.0017 25.037C97.0017 26.7626 97.409 28.2928 98.1896 29.6928C98.9703 31.0602 100.056 32.1672 101.516 32.916C102.907 33.6649 104.536 34.0556 106.369 34.0556C108.474 34.0556 110.272 33.6323 111.698 32.8509L111.732 32.8184V28.9114L111.562 29.0416C110.917 29.4974 110.171 29.8881 109.424 30.116C108.643 30.3765 107.931 30.5067 107.32 30.5067C105.555 30.5067 104.163 30.0184 103.179 28.9439C102.161 27.9021 101.652 26.4695 101.652 24.6788C101.652 22.823 102.161 21.3579 103.213 20.2835C104.265 19.2091 105.657 18.6556 107.354 18.6556C108.779 18.6556 110.238 19.1114 111.562 20.023L111.732 20.1532V16.0184L111.698 15.9858C111.121 15.7579 110.476 15.4974 109.594 15.3346ZM124.154 15.2044C123.068 15.2044 122.05 15.53 121.167 16.2137C120.421 16.7998 119.911 17.6463 119.47 18.6556H119.436V15.4974H115.024V33.5346H119.436V24.3207C119.436 22.7579 119.776 21.4556 120.522 20.5114C121.269 19.5346 122.219 19.0463 123.373 19.0463C123.781 19.0463 124.188 19.1439 124.697 19.2091C125.172 19.3393 125.512 19.4695 125.749 19.6323L125.919 19.7625V15.53L125.817 15.4974C125.512 15.3021 124.901 15.2044 124.154 15.2044ZM136.169 15.1067C133.08 15.1067 130.603 15.9858 128.872 17.7114C127.107 19.437 126.258 21.8137 126.258 24.8091C126.258 27.6091 127.141 29.8881 128.838 31.5486C130.535 33.1765 132.843 34.023 135.728 34.023C138.748 34.023 141.158 33.1439 142.889 31.3858C144.654 29.6277 145.503 27.2835 145.503 24.3858C145.503 21.5207 144.688 19.2416 143.025 17.5812C141.43 15.9207 139.088 15.1067 136.169 15.1067ZM139.699 28.9765C138.884 29.9858 137.594 30.4742 135.999 30.4742C134.404 30.4742 133.114 29.9858 132.198 28.9114C131.282 27.9021 130.84 26.437 130.84 24.5812C130.84 22.6602 131.315 21.1951 132.198 20.1532C133.114 19.1114 134.37 18.5905 135.965 18.5905C137.527 18.5905 138.748 19.0788 139.631 20.0881C140.513 21.0974 140.988 22.5625 140.988 24.4835C140.921 26.437 140.547 27.9672 139.699 28.9765ZM155.345 22.9858C153.954 22.4323 153.071 22.0091 152.664 21.6509C152.325 21.3253 152.155 20.8695 152.155 20.2835C152.155 19.7951 152.359 19.3067 152.868 18.9812C153.377 18.6556 153.954 18.4928 154.802 18.4928C155.549 18.4928 156.33 18.623 157.076 18.8184C157.823 19.0137 158.502 19.3067 159.045 19.6974L159.214 19.8277V15.8556L159.113 15.823C158.604 15.6277 157.925 15.4323 157.11 15.2695C156.296 15.1393 155.549 15.0742 154.938 15.0742C152.834 15.0742 151.103 15.5625 149.745 16.637C148.387 17.6463 147.743 19.0137 147.743 20.6091C147.743 21.4556 147.878 22.2044 148.184 22.823C148.489 23.4416 148.931 24.0277 149.541 24.516C150.152 24.9719 151.035 25.4928 152.257 25.9812C153.275 26.4044 154.056 26.73 154.531 26.9905C155.006 27.2509 155.311 27.5439 155.549 27.7719C155.719 28.0323 155.82 28.3579 155.82 28.7812C155.82 29.9858 154.87 30.5719 152.936 30.5719C152.189 30.5719 151.408 30.4416 150.492 30.1486C149.575 29.8556 148.727 29.4323 148.014 28.9439L147.844 28.8137V32.9486L147.946 32.9812C148.591 33.2742 149.372 33.4695 150.322 33.6974C151.272 33.8602 152.121 33.9905 152.868 33.9905C155.142 33.9905 157.008 33.5021 158.332 32.4277C159.69 31.3858 160.402 30.0509 160.402 28.3253C160.402 27.1207 160.063 26.0463 159.316 25.2323C158.332 24.4509 157.11 23.637 155.345 22.9858ZM172.044 15.1067C168.955 15.1067 166.478 15.9858 164.747 17.7114C163.016 19.437 162.133 21.8137 162.133 24.8091C162.133 27.6091 163.016 29.8881 164.713 31.5486C166.41 33.1765 168.718 34.023 171.603 34.023C174.623 34.023 177.033 33.1439 178.764 31.3858C180.529 29.6277 181.378 27.2835 181.378 24.3858C181.378 21.5207 180.563 19.2416 178.9 17.5812C177.305 15.9207 174.963 15.1067 172.044 15.1067ZM175.54 28.9765C174.725 29.9858 173.436 30.4742 171.84 30.4742C170.211 30.4742 168.955 29.9858 168.039 28.9114C167.123 27.9021 166.681 26.437 166.681 24.5812C166.681 22.6602 167.157 21.1951 168.039 20.1532C168.955 19.1114 170.211 18.5905 171.806 18.5905C173.334 18.5905 174.589 19.0788 175.472 20.0881C176.354 21.0974 176.83 22.5625 176.83 24.4835C176.83 26.437 176.388 27.9672 175.54 28.9765ZM204.966 18.9812V15.4974H200.52V10.1579L200.384 10.1905L196.176 11.3951L196.074 11.4277V15.4974H189.421V13.2184C189.421 12.1765 189.693 11.3625 190.168 10.8416C190.643 10.3207 191.356 10.0602 192.239 10.0602C192.849 10.0602 193.494 10.1905 194.207 10.4835L194.377 10.5812V6.90208L194.275 6.86953C193.664 6.67418 192.849 6.54395 191.797 6.54395C190.474 6.54395 189.32 6.83697 188.267 7.32534C187.215 7.87883 186.435 8.62767 185.858 9.63697C185.281 10.6137 184.975 11.7207 184.975 12.9905V15.4974H181.887V18.9486H184.975V33.5346H189.421V18.9812H196.074V28.2602C196.074 32.0695 197.94 33.9905 201.674 33.9905C202.285 33.9905 202.93 33.8928 203.541 33.7951C204.186 33.6649 204.661 33.5021 204.932 33.3719L204.966 33.3393V29.8556L204.796 29.9858C204.525 30.1486 204.287 30.2788 203.88 30.3765C203.541 30.4742 203.235 30.5067 202.998 30.5067C202.115 30.5067 201.504 30.3114 201.063 29.823C200.656 29.3672 200.452 28.6184 200.452 27.5114V18.9812H204.966Z" fill="white"/>
<path d="M0 0H20.8055V19.9581H0V0Z" fill="white"/>
<path d="M22.9777 0H43.7832V19.9581H22.9777V0Z" fill="white"/>
<path d="M0 22.042H20.8055V42.0001H0V22.042Z" fill="white"/>
<path d="M22.9777 22.042H43.7832V42.0001H22.9777V22.042Z" fill="white"/>
</g>
<defs>
<clipPath id="clip0">
<rect width="205" height="42" fill="white"/>
</clipPath>
</defs>
</svg>
