<svg width="233" height="36" viewBox="0 0 233 36" fill="none" xmlns="http://www.w3.org/2000/svg">
<path fill-rule="evenodd" clip-rule="evenodd" d="M10.839 9.08633C16.0625 9.08633 20.84 11.1077 20.8905 17.2691H14.632C14.5833 15.3971 12.9577 14.4593 10.6927 14.4593C8.27782 14.4593 7.1941 15.1505 7.1941 16.5293C7.1941 17.4653 7.73596 18.0593 9.70472 18.7487L15.1269 20.5253C18.8694 21.8051 21.4812 23.4827 21.4812 27.6713C21.4812 33.7877 16.1113 35.9567 10.7902 35.9567C4.97609 35.9567 0 33.8867 0 27.2789H6.25849C6.40479 29.6459 8.03218 30.6323 10.7415 30.6323C13.8933 30.6323 15.0764 29.9411 15.0764 28.2653C15.0764 26.9333 14.0902 26.5895 11.184 25.6013L7.04599 24.2693C4.04047 23.3351 0.592434 21.7583 0.592434 17.0747C0.689969 11.2049 5.81236 9.08633 10.8372 9.08633H10.839ZM30.2376 10.3193L30.1889 24.2513C30.1889 28.2599 31.8578 29.6909 34.7188 29.6909C38.1289 29.6909 39.3571 27.0161 39.4366 23.7365L39.4402 23.3945V10.3193H45.6391V28.5407C45.6391 29.1617 46.0979 29.7611 46.6975 29.8547L46.8637 29.8691H47.6331V34.9991L42.7058 34.9901C42.3481 34.9894 41.9941 34.9185 41.6639 34.7814C41.3337 34.6444 41.0339 34.4438 40.7814 34.1913C40.529 33.9387 40.329 33.6391 40.1928 33.3095C40.0565 32.9799 39.9868 32.6268 39.9875 32.2703C39.0338 34.3673 36.0554 35.6579 33.0968 35.6579C27.4254 35.6579 24.2031 32.0291 24.0442 26.0099L24.0387 25.5419V10.3193H30.2376ZM56.6244 0.775726V12.6107C58.2464 10.6541 60.5348 9.65333 63.2532 9.65333C69.2624 9.65333 73.6479 14.6609 73.6479 22.5359C73.6479 30.5999 68.8307 35.6579 63.2062 35.6579C60.2495 35.6579 57.961 34.5113 56.339 32.3639V34.9901H50.4291V0.773926H56.6262L56.6244 0.775726ZM85.8307 9.65333C90.8845 9.65333 95.5119 11.6099 95.5571 17.5715H89.5027C89.4557 15.7607 87.8825 14.8535 85.688 14.8535C83.3508 14.8535 82.3032 15.5213 82.3032 16.8569C82.3032 17.7641 82.827 18.3365 84.7343 19.0043L89.9777 20.7215C93.6028 21.9635 96.1279 23.5853 96.1279 27.6425C96.1279 33.5573 90.9332 35.6579 85.7837 35.6579C80.1556 35.6579 75.3403 33.6527 75.3403 27.2591H81.3965C81.541 29.5487 83.1124 30.5045 85.735 30.5045C88.7875 30.5045 89.9326 29.8349 89.9326 28.2131C89.9326 26.9243 88.9771 26.5895 86.1648 25.6373L82.1587 24.3485C79.2507 23.4413 75.9128 21.9149 75.9128 17.3825C76.0086 11.7035 80.9666 9.65333 85.8325 9.65333H85.8307ZM126.687 9.65333C132.219 9.65333 136.843 11.5595 136.843 19.0511V28.4039C136.843 29.4065 137.322 29.9303 138.274 29.9303H138.846V34.9883H134.129C132.223 34.9883 131.078 33.9875 131.078 31.9823V31.7447C129.409 34.5113 126.644 35.6579 123.306 35.6579C119.014 35.6579 115.485 33.0821 115.485 28.4039C115.485 23.7743 118.727 21.3911 123.925 20.4353L128.025 19.6253C130.03 19.2905 130.601 18.9089 130.601 17.5247C130.601 16.1405 129.458 15.0443 126.548 15.0443C123.83 15.0443 122.399 15.9497 122.399 17.7155H116.343C116.343 12.3245 121.064 9.65153 126.691 9.65153L126.687 9.65333ZM206.908 9.65333C212.438 9.65333 217.064 11.5595 217.064 19.0511V28.4039C217.064 29.4065 217.541 29.9303 218.494 29.9303H219.067V34.9883H214.346C212.438 34.9883 211.293 33.9875 211.293 31.9823V31.7447C209.624 34.5113 206.859 35.6579 203.521 35.6579C199.231 35.6579 195.702 33.0821 195.702 28.4039C195.702 23.7743 198.946 21.3911 204.141 20.4353L208.242 19.6253C210.247 19.2905 210.818 18.9089 210.818 17.5247C210.818 16.1405 209.673 15.0443 206.765 15.0443C204.047 15.0443 202.616 15.9497 202.616 17.7155H196.56C196.56 12.3245 201.281 9.65153 206.909 9.65153L206.908 9.65333ZM107.547 2.35973V9.87293H113.458V15.6419H107.547V27.1799C107.547 29.0033 108.089 29.6927 110.207 29.6927H113.458V35.3645H109.075C104.59 35.3645 101.142 34.4285 101.142 28.6091V15.6419H96.6083V9.87473H101.142V4.18133L107.547 2.36153V2.35973ZM176.423 2.35973V9.87293H182.334V15.6419H176.423V27.1799C176.423 29.0033 176.964 29.6927 179.083 29.6927H182.334V35.3645H177.949C173.464 35.3645 170.018 34.4285 170.018 28.6091V15.6419H165.484V9.87473H170.018V4.18133L176.423 2.36153V2.35973ZM192.366 10.3175V34.9919H186.167V10.3193H192.366V10.3175ZM228.183 0.773926V28.0205C228.183 29.4065 228.757 29.8349 229.948 29.8349H232.447V34.9883H227.896C224.37 34.9883 222.031 33.7949 222.031 29.5001V0.775726H228.183V0.773926ZM154.866 9.65153C160.443 9.65153 164.019 13.3253 164.019 19.7189V34.9901H157.82L157.867 21.1985C157.867 17.7623 156.105 15.6653 153.244 15.6653C150.047 15.6653 148.284 18.2411 148.284 21.7727V34.9901H142.085V10.3193H147.998V13.0391C149.284 10.8431 152.194 9.65153 154.866 9.65153ZM130.646 23.5367C130.312 23.7743 129.694 23.9687 129.169 24.0623L125.592 24.8273C123.255 25.3493 121.873 26.1629 121.873 27.9755C121.873 29.7395 122.97 30.6953 124.973 30.6953C128.311 30.6953 130.646 27.8801 130.646 24.6833V23.5367ZM210.867 23.5367C210.533 23.7743 209.913 23.9687 209.388 24.0623L205.811 24.8273C203.476 25.3493 202.092 26.1629 202.092 27.9755C202.092 29.7395 203.19 30.6953 205.192 30.6953C208.531 30.6953 210.867 27.8801 210.867 24.6833V23.5367ZM62.0177 15.4259C58.5336 15.4259 56.4835 18.3851 56.4835 22.6313C56.4835 26.9729 58.5823 29.9321 62.0159 29.9321C65.352 29.9321 67.4526 27.1169 67.4526 22.6313C67.4526 18.2879 65.352 15.4259 62.0159 15.4259H62.0177Z" fill="white"/>
<path fill-rule="evenodd" clip-rule="evenodd" d="M196.623 0C196.623 4.0572 193.336 7.344 189.284 7.344C187.334 7.34018 185.464 6.56436 184.087 5.18714C182.711 3.80992 181.939 1.9441 181.942 0" fill="white"/>
</svg>
